<?xml version="1.0" encoding="utf-8"?>
<!-- Generator: Adobe Illustrator 21.0.0, SVG Export Plug-In . SVG Version: 6.00 Build 0)  -->
<svg version="1.1" xmlns="http://www.w3.org/2000/svg" xmlns:xlink="http://www.w3.org/1999/xlink" x="0px" y="0px"
	 viewBox="0 0 1400 980" enable-background="new 0 0 1400 980" xml:space="preserve">
<g id="background">
</g>
<g id="object">
</g>
<g id="text">
	<rect fill="#00144D" width="1400" height="980"/>
	<g opacity="0.5">
		<g>
			<polygon fill="#062C7F" points="316.9,201.1 316.9,302.2 525.4,510.8 525.4,329.3 473.7,277.6 473.7,164.6 309.1,0 115.7,0 			
				"/>
			<polygon fill="#062C7F" points="876,347.5 876,490 1168.3,197.7 1168.3,109.7 1278,0 1049.6,0 1017.5,32.1 1017.5,206.5 			"/>
			<polygon fill="#062C7F" points="0,668.2 41.7,626.5 70,626.5 105.7,662.2 522.2,662.2 522.2,565.9 282.5,326.2 0,608.7 			"/>
			<path fill="#062C7F" d="M845.6,751.9H720.5l-65.7-65.7l-94.9-2.1h-19.2l121.1,121.1h58.7c0,0,102,107.4,169.6,174.8h183.5
				L845.6,751.9z"/>
			<polygon fill="#062C7F" points="1400,209.6 1166.8,442.8 1144.5,420.4 967.8,420.4 878.1,509.4 1061.4,692.6 1101.9,692.6 
				1400,394.6 			"/>
			<polygon fill="#062C7F" points="91.6,710.8 0,710.8 0,980 360.8,980 			"/>
		</g>
	</g>
	<g>
		<radialGradient id="SVGID_1_" cx="701" cy="489" r="544.0147" gradientUnits="userSpaceOnUse">
			<stop  offset="0" style="stop-color:#10A7FF"/>
			<stop  offset="1" style="stop-color:#224099"/>
		</radialGradient>
		<path fill="url(#SVGID_1_)" d="M964.2,436.5l-44.8,44.8c-3.1-2.1-7.3-1.8-10,1c-3.1,3.1-3.1,8.1,0,11.2c3.1,3.1,8.1,3.1,11.2,0
			c2.7-2.7,3-6.9,1-10l43.9-43.9h143.9l36.4,36.4h135.5c0.7,3.6,3.9,6.4,7.7,6.4c4.4,0,7.9-3.5,7.9-7.9c0-4.4-3.5-7.9-7.9-7.9
			c-3.8,0-7,2.8-7.7,6.4H1147l-36.4-36.4H964.2z"/>
		<radialGradient id="SVGID_2_" cx="701" cy="489" r="544.0147" gradientUnits="userSpaceOnUse">
			<stop  offset="0" style="stop-color:#10A7FF"/>
			<stop  offset="1" style="stop-color:#224099"/>
		</radialGradient>
		<path fill="url(#SVGID_2_)" d="M1018,643.7c3.8,0,7-2.8,7.7-6.4h27.9l69.3-69.3c3.1,2.1,7.3,1.8,10-1c3.1-3.1,3.1-8.1,0-11.2
			c-3.1-3.1-8.1-3.1-11.2,0c-2.7,2.7-3,6.9-1,10l-68.4,68.4h-26.7c-0.7-3.6-3.9-6.4-7.7-6.4c-4.4,0-7.9,3.5-7.9,7.9
			C1010.1,640.2,1013.6,643.7,1018,643.7z"/>
		<radialGradient id="SVGID_3_" cx="701" cy="489" r="544.0147" gradientUnits="userSpaceOnUse">
			<stop  offset="0" style="stop-color:#10A7FF"/>
			<stop  offset="1" style="stop-color:#224099"/>
		</radialGradient>
		<path fill="url(#SVGID_3_)" d="M1061,684.1c3.8,0,7-2.8,7.7-6.4h34.3L1262,518.8l-23.7-23.7h-109.5c-0.7-3.6-3.9-6.4-7.7-6.4
			c-4.4,0-7.9,3.5-7.9,7.9c0,4.4,3.5,7.9,7.9,7.9c3.8,0,7-2.8,7.7-6.4H1237l20.7,20.7l-155.9,155.9h-33.1c-0.7-3.6-3.9-6.4-7.7-6.4
			c-4.4,0-7.9,3.5-7.9,7.9C1053.1,680.6,1056.6,684.1,1061,684.1z"/>
		<radialGradient id="SVGID_4_" cx="701" cy="489" r="544.0147" gradientUnits="userSpaceOnUse">
			<stop  offset="0" style="stop-color:#10A7FF"/>
			<stop  offset="1" style="stop-color:#224099"/>
		</radialGradient>
		<path fill="url(#SVGID_4_)" d="M1189.6,218.9c3.6-0.7,6.4-3.9,6.4-7.7c0-4.4-3.5-7.9-7.9-7.9c-4.4,0-7.9,3.5-7.9,7.9
			c0,3.8,2.8,7,6.4,7.7v34.5l-146.2,146.2c-3.1-2.1-7.3-1.8-10,1c-3.1,3.1-3.1,8.1,0,11.2c3.1,3.1,8.1,3.1,11.2,0
			c2.7-2.7,3-6.9,1-10l147.1-147.1V218.9z"/>
		<radialGradient id="SVGID_5_" cx="701" cy="489" r="544.0147" gradientUnits="userSpaceOnUse">
			<stop  offset="0" style="stop-color:#10A7FF"/>
			<stop  offset="1" style="stop-color:#224099"/>
		</radialGradient>
		<path fill="url(#SVGID_5_)" d="M1091.6,203.6v98.7l-84.7,84.7c-3.1-2.1-7.3-1.8-10,1c-3.1,3.1-3.1,8.1,0,11.2s8.1,3.1,11.2,0
			c2.7-2.7,3-6.9,1-10l85.6-85.6v-98.7l189.5-189.5c3.1,2.1,7.3,1.8,10-1c3.1-3.1,3.1-8.1,0-11.2s-8.1-3.1-11.2,0
			c-2.7,2.7-3,6.9-1,10L1091.6,203.6z"/>
		<radialGradient id="SVGID_6_" cx="701" cy="489" r="544.0147" gradientUnits="userSpaceOnUse">
			<stop  offset="0" style="stop-color:#10A7FF"/>
			<stop  offset="1" style="stop-color:#224099"/>
		</radialGradient>
		<path fill="url(#SVGID_6_)" d="M899.5,384c-3.1,3.1-3.1,8.1,0,11.2c3.1,3.1,8.1,3.1,11.2,0c2.7-2.7,3-6.9,1-10l54-54v-32.3
			l57.9-57.9c3.1,2.1,7.3,1.8,10-1c3.1-3.1,3.1-8.1,0-11.2c-3.1-3.1-8.1-3.1-11.2,0c-2.7,2.7-3,6.9-1,10l-58.8,58.8v32.3L909.5,383
			C906.4,381,902.2,381.3,899.5,384z"/>
		<radialGradient id="SVGID_7_" cx="701" cy="489" r="544.0147" gradientUnits="userSpaceOnUse">
			<stop  offset="0" style="stop-color:#10A7FF"/>
			<stop  offset="1" style="stop-color:#224099"/>
		</radialGradient>
		<path fill="url(#SVGID_7_)" d="M1059.3,507.7c3.1-3.1,3.1-8.1,0-11.2c-3.1-3.1-8.1-3.1-11.2,0c-2.7,2.7-3,6.9-1,10l-76.5,76.5
			c-3.1-2.1-7.3-1.8-10,1c-3.1,3.1-3.1,8.1,0,11.2s8.1,3.1,11.2,0c2.7-2.7,3-6.9,1-10l76.5-76.5
			C1052.3,510.8,1056.6,510.5,1059.3,507.7z"/>
		<radialGradient id="SVGID_8_" cx="701" cy="489" r="544.0147" gradientUnits="userSpaceOnUse">
			<stop  offset="0" style="stop-color:#10A7FF"/>
			<stop  offset="1" style="stop-color:#224099"/>
		</radialGradient>
		<path fill="url(#SVGID_8_)" d="M1088.4,534.9c3.1-3.1,3.1-8.1,0-11.2c-3.1-3.1-8.1-3.1-11.2,0c-2.7,2.7-3,6.9-1,10l-46.1,46.1
			c-3.1-2.1-7.3-1.8-10,1c-3.1,3.1-3.1,8.1,0,11.2c3.1,3.1,8.1,3.1,11.2,0c2.7-2.7,3-6.9,1-10l46.1-46.1
			C1081.4,537.9,1085.6,537.6,1088.4,534.9z"/>
		<radialGradient id="SVGID_9_" cx="701" cy="489" r="544.0147" gradientUnits="userSpaceOnUse">
			<stop  offset="0" style="stop-color:#10A7FF"/>
			<stop  offset="1" style="stop-color:#224099"/>
		</radialGradient>
		<path fill="url(#SVGID_9_)" d="M1120.3,601.7h17.9l33.7-33.7c3.1,2.1,7.3,1.8,10-1c3.1-3.1,3.1-8.1,0-11.2
			c-3.1-3.1-8.1-3.1-11.2,0c-2.7,2.7-3,6.9-1,10l-32.8,32.8H1119l-28.5,28.5v15.2c-3.6,0.7-6.4,3.9-6.4,7.7c0,4.4,3.5,7.9,7.9,7.9
			s7.9-3.5,7.9-7.9c0-3.8-2.8-7-6.4-7.7v-13.9L1120.3,601.7z"/>
		<radialGradient id="SVGID_10_" cx="701" cy="489" r="544.0147" gradientUnits="userSpaceOnUse">
			<stop  offset="0" style="stop-color:#10A7FF"/>
			<stop  offset="1" style="stop-color:#224099"/>
		</radialGradient>
		<path fill="url(#SVGID_10_)" d="M1325.5,430.3c-3.6,0.7-6.4,3.9-6.4,7.7c0,4.4,3.5,7.9,7.9,7.9s7.9-3.5,7.9-7.9
			c0-3.8-2.8-7-6.4-7.7v-44.5l71.5-71.5v-4.2l-74.5,74.5V430.3z"/>
		<radialGradient id="SVGID_11_" cx="701" cy="489" r="544.0147" gradientUnits="userSpaceOnUse">
			<stop  offset="0" style="stop-color:#10A7FF"/>
			<stop  offset="1" style="stop-color:#224099"/>
		</radialGradient>
		<path fill="url(#SVGID_11_)" d="M1007.3,520.3l24-24c3.1,2.1,7.3,1.8,10-1c3.1-3.1,3.1-8.1,0-11.2c-3.1-3.1-8.1-3.1-11.2,0
			c-2.7,2.7-3,6.9-1,10l-23.1,23.1h-35.3l-31,31c-3.1-2.1-7.3-1.8-10,1c-3.1,3.1-3.1,8.1,0,11.2c3.1,3.1,8.1,3.1,11.2,0
			c2.7-2.7,3-6.9,1-10l30.1-30.1H1007.3z"/>
		<radialGradient id="SVGID_12_" cx="701" cy="489" r="544.0147" gradientUnits="userSpaceOnUse">
			<stop  offset="0" style="stop-color:#10A7FF"/>
			<stop  offset="1" style="stop-color:#224099"/>
		</radialGradient>
		<path fill="url(#SVGID_12_)" d="M991.2,606l10.4,10.4h37.5l86-86h70.9c0.7,3.6,3.9,6.4,7.7,6.4c4.4,0,7.9-3.5,7.9-7.9
			c0-4.4-3.5-7.9-7.9-7.9c-3.8,0-7,2.8-7.7,6.4h-72.1l-86,86h-35l-9.5-9.5c2.1-3.1,1.8-7.3-1-10c-3.1-3.1-8.1-3.1-11.2,0
			c-3.1,3.1-3.1,8.1,0,11.2C983.9,607.7,988.1,608,991.2,606z"/>
		<radialGradient id="SVGID_13_" cx="701" cy="489" r="544.0147" gradientUnits="userSpaceOnUse">
			<stop  offset="0" style="stop-color:#10A7FF"/>
			<stop  offset="1" style="stop-color:#224099"/>
		</radialGradient>
		<path fill="url(#SVGID_13_)" d="M1083.7,463c-3.8,0-7,2.8-7.7,6.4H971.1l-46.4,46.4c-3.1-2.1-7.3-1.8-10,1
			c-3.1,3.1-3.1,8.1,0,11.2c3.1,3.1,8.1,3.1,11.2,0c2.7-2.7,3-6.9,1-10l45.5-45.5h103.5c0.7,3.6,3.9,6.4,7.7,6.4
			c4.4,0,7.9-3.5,7.9-7.9C1091.6,466.5,1088,463,1083.7,463z"/>
		<radialGradient id="SVGID_14_" cx="701" cy="489" r="544.0147" gradientUnits="userSpaceOnUse">
			<stop  offset="0" style="stop-color:#10A7FF"/>
			<stop  offset="1" style="stop-color:#224099"/>
		</radialGradient>
		<path fill="url(#SVGID_14_)" d="M1181.3,430.7h101.9c0.7,3.6,3.9,6.4,7.7,6.4c4.4,0,7.9-3.5,7.9-7.9c0-4.4-3.5-7.9-7.9-7.9
			c-3.8,0-7,2.8-7.7,6.4h-100.6l-32.2-32.2l39-39c3.1,2.1,7.3,1.8,10-1c3.1-3.1,3.1-8.1,0-11.2c-3.1-3.1-8.1-3.1-11.2,0
			c-2.7,2.7-3,6.9-1,10l-41.1,41.1L1181.3,430.7z"/>
		<radialGradient id="SVGID_15_" cx="701" cy="489" r="544.0147" gradientUnits="userSpaceOnUse">
			<stop  offset="0" style="stop-color:#10A7FF"/>
			<stop  offset="1" style="stop-color:#224099"/>
		</radialGradient>
		<path fill="url(#SVGID_15_)" d="M889.5,570.4c-3.1-3.1-8.1-3.1-11.2,0s-3.1,8.1,0,11.2c2.7,2.7,6.9,3,10,1l151.6,151.6v101.8
			l77.5,77.5c-2.1,3.1-1.8,7.3,1,10c3.1,3.1,8.1,3.1,11.2,0c3.1-3.1,3.1-8.1,0-11.2c-2.7-2.7-6.9-3-10-1l-76.7-76.7V732.8
			L890.4,580.4C892.5,577.3,892.2,573.1,889.5,570.4z"/>
		<radialGradient id="SVGID_16_" cx="701" cy="489" r="544.0147" gradientUnits="userSpaceOnUse">
			<stop  offset="0" style="stop-color:#10A7FF"/>
			<stop  offset="1" style="stop-color:#224099"/>
		</radialGradient>
		<path fill="url(#SVGID_16_)" d="M1062.4,296l-143,143c-3.1-2.1-7.3-1.8-10,1c-3.1,3.1-3.1,8.1,0,11.2c3.1,3.1,8.1,3.1,11.2,0
			c2.7-2.7,3-6.9,1-10l143.9-143.9V192.8L1258.2,0h-4.2l-191.6,191.6V296z"/>
		<radialGradient id="SVGID_17_" cx="701" cy="489" r="544.0147" gradientUnits="userSpaceOnUse">
			<stop  offset="0" style="stop-color:#10A7FF"/>
			<stop  offset="1" style="stop-color:#224099"/>
		</radialGradient>
		<path fill="url(#SVGID_17_)" d="M944.1,823.6c3.1,3.1,8.1,3.1,11.2,0s3.1-8.1,0-11.2c-2.7-2.7-6.9-3-10-1L877.7,744h-43.6
			l-46.8-46.8c2.1-3.1,1.8-7.3-1-10c-3.1-3.1-8.1-3.1-11.2,0s-3.1,8.1,0,11.2c2.7,2.7,6.9,3,10,1l47.7,47.7h43.6l66.6,66.6
			C941,816.7,941.4,820.9,944.1,823.6z"/>
		<radialGradient id="SVGID_18_" cx="701" cy="489" r="544.0147" gradientUnits="userSpaceOnUse">
			<stop  offset="0" style="stop-color:#10A7FF"/>
			<stop  offset="1" style="stop-color:#224099"/>
		</radialGradient>
		<path fill="url(#SVGID_18_)" d="M877.1,311.6c-3.1,3.1-3.1,8.1,0,11.2c3.1,3.1,8.1,3.1,11.2,0c2.7-2.7,3-6.9,1-10L1202,0h-4.2
			L887.1,310.6C884.1,308.5,879.8,308.8,877.1,311.6z"/>
		<radialGradient id="SVGID_19_" cx="701" cy="489" r="544.0147" gradientUnits="userSpaceOnUse">
			<stop  offset="0" style="stop-color:#10A7FF"/>
			<stop  offset="1" style="stop-color:#224099"/>
		</radialGradient>
		<path fill="url(#SVGID_19_)" d="M589,347.3v-3h-34.7v291.5h291.5V344.3H655.9v3h186.9v41.4h-46.3c-0.7-3.6-3.9-6.4-7.7-6.4
			c-4.4,0-7.9,3.5-7.9,7.9s3.5,7.9,7.9,7.9c3.8,0,7-2.8,7.7-6.4h46.3v36.9h-46.3c-0.7-3.6-3.9-6.4-7.7-6.4c-4.4,0-7.9,3.5-7.9,7.9
			c0,4.4,3.5,7.9,7.9,7.9c3.8,0,7-2.8,7.7-6.4h46.3v36.9h-46.3c-0.7-3.6-3.9-6.4-7.7-6.4c-4.4,0-7.9,3.5-7.9,7.9
			c0,4.4,3.5,7.9,7.9,7.9c3.8,0,7-2.8,7.7-6.4h46.3v36.9h-46.3c-0.7-3.6-3.9-6.4-7.7-6.4c-4.4,0-7.9,3.5-7.9,7.9
			c0,4.4,3.5,7.9,7.9,7.9c3.8,0,7-2.8,7.7-6.4h46.3v36.9h-46.3c-0.7-3.6-3.9-6.4-7.7-6.4c-4.4,0-7.9,3.5-7.9,7.9
			c0,4.4,3.5,7.9,7.9,7.9c3.8,0,7-2.8,7.7-6.4h46.3v36.9h-46.3c-0.7-3.6-3.9-6.4-7.7-6.4c-4.4,0-7.9,3.5-7.9,7.9
			c0,4.4,3.5,7.9,7.9,7.9c3.8,0,7-2.8,7.7-6.4h46.3v41.4H557.3v-41.4h60.5c0.7,3.6,3.9,6.4,7.7,6.4c4.4,0,7.9-3.5,7.9-7.9
			c0-4.4-3.5-7.9-7.9-7.9c-3.8,0-7,2.8-7.7,6.4h-60.5v-36.9h60.5c0.7,3.6,3.9,6.4,7.7,6.4c4.4,0,7.9-3.5,7.9-7.9
			c0-4.4-3.5-7.9-7.9-7.9c-3.8,0-7,2.8-7.7,6.4h-60.5v-36.9h60.5c0.7,3.6,3.9,6.4,7.7,6.4c4.4,0,7.9-3.5,7.9-7.9
			c0-4.4-3.5-7.9-7.9-7.9c-3.8,0-7,2.8-7.7,6.4h-60.5v-36.9h60.5c0.7,3.6,3.9,6.4,7.7,6.4c4.4,0,7.9-3.5,7.9-7.9
			c0-4.4-3.5-7.9-7.9-7.9c-3.8,0-7,2.8-7.7,6.4h-60.5v-36.9h60.5c0.7,3.6,3.9,6.4,7.7,6.4c4.4,0,7.9-3.5,7.9-7.9
			c0-4.4-3.5-7.9-7.9-7.9c-3.8,0-7,2.8-7.7,6.4h-60.5v-36.9h60.5c0.7,3.6,3.9,6.4,7.7,6.4c4.4,0,7.9-3.5,7.9-7.9s-3.5-7.9-7.9-7.9
			c-3.8,0-7,2.8-7.7,6.4h-60.5v-41.4H589z"/>
		<radialGradient id="SVGID_20_" cx="701" cy="489" r="544.0147" gradientUnits="userSpaceOnUse">
			<stop  offset="0" style="stop-color:#10A7FF"/>
			<stop  offset="1" style="stop-color:#224099"/>
		</radialGradient>
		<path fill="url(#SVGID_20_)" d="M781.8,767.4c2.5,3.6,7.4,4.5,11,2.1s4.5-7.4,2.1-11c-2.4-3.5-7.2-4.5-10.8-2.2
			c-14.1-14.3-50.9-50.8-60.5-60.3v-30.8h96.9l26.4,26.4c-2.1,3.1-1.8,7.3,1,10c3.1,3.1,8.1,3.1,11.2,0c3.1-3.1,3.1-8.1,0-11.2
			c-2.7-2.7-6.9-3-10-1l-27.3-27.3H720.5v35.1l0.4,0.4c20.5,20.3,49.2,48.9,60.9,60.7C780,761,779.9,764.6,781.8,767.4z"/>
		<radialGradient id="SVGID_21_" cx="701" cy="489" r="544.0147" gradientUnits="userSpaceOnUse">
			<stop  offset="0" style="stop-color:#10A7FF"/>
			<stop  offset="1" style="stop-color:#224099"/>
		</radialGradient>
		<path fill="url(#SVGID_21_)" d="M1214,158.8c-3.1,3.1-3.1,8.1,0,11.2c3.1,3.1,8.1,3.1,11.2,0c2.7-2.7,3-6.9,1-10L1386,0h-4.2
			L1224,157.8C1220.9,155.7,1216.7,156,1214,158.8z"/>
		<radialGradient id="SVGID_22_" cx="701" cy="489" r="544.0147" gradientUnits="userSpaceOnUse">
			<stop  offset="0" style="stop-color:#10A7FF"/>
			<stop  offset="1" style="stop-color:#224099"/>
		</radialGradient>
		<path fill="url(#SVGID_22_)" d="M1136.2,229.4c-3.6,0.7-6.4,3.9-6.4,7.7c0,4.4,3.5,7.9,7.9,7.9c4.4,0,7.9-3.5,7.9-7.9
			c0-3.8-2.8-7-6.4-7.7v-20.9L1347.7,0h-4.2l-207.3,207.3V229.4z"/>
		<radialGradient id="SVGID_23_" cx="701" cy="489" r="544.0147" gradientUnits="userSpaceOnUse">
			<stop  offset="0" style="stop-color:#10A7FF"/>
			<stop  offset="1" style="stop-color:#224099"/>
		</radialGradient>
		<path fill="url(#SVGID_23_)" d="M1100.4,391.6c-3.1-2.1-7.3-1.8-10,1c-3.1,3.1-3.1,8.1,0,11.2c3.1,3.1,8.1,3.1,11.2,0
			c2.7-2.7,3-6.9,1-10L1400,96.3V92L1100.4,391.6z"/>
		<radialGradient id="SVGID_24_" cx="701" cy="489" r="544.0147" gradientUnits="userSpaceOnUse">
			<stop  offset="0" style="stop-color:#10A7FF"/>
			<stop  offset="1" style="stop-color:#224099"/>
		</radialGradient>
		<path fill="url(#SVGID_24_)" d="M1203.4,379.6c-3.1,3.1-3.1,8.1,0,11.2c3.1,3.1,8.1,3.1,11.2,0c2.7-2.7,3-6.9,1-10l94-94
			c3.1,2.1,7.3,1.8,10-1c3.1-3.1,3.1-8.1,0-11.2c-3.1-3.1-8.1-3.1-11.2,0c-2.7,2.7-3,6.9-1,10l-94,94
			C1210.3,376.6,1206.1,376.9,1203.4,379.6z"/>
		<radialGradient id="SVGID_25_" cx="701" cy="489" r="544.0147" gradientUnits="userSpaceOnUse">
			<stop  offset="0" style="stop-color:#10A7FF"/>
			<stop  offset="1" style="stop-color:#224099"/>
		</radialGradient>
		<path fill="url(#SVGID_25_)" d="M1357.4,299l-88,88c-3.1-2.1-7.3-1.8-10,1c-3.1,3.1-3.1,8.1,0,11.2c3.1,3.1,8.1,3.1,11.2,0
			c2.7-2.7,3-6.9,1-10l88.9-88.9v-81.9l39.6-39.6v-4.2l-42.6,42.6V299z"/>
		<radialGradient id="SVGID_26_" cx="701" cy="489" r="544.0147" gradientUnits="userSpaceOnUse">
			<stop  offset="0" style="stop-color:#10A7FF"/>
			<stop  offset="1" style="stop-color:#224099"/>
		</radialGradient>
		<path fill="url(#SVGID_26_)" d="M1362.7,80c3.1-3.1,3.1-8.1,0-11.2c-3.1-3.1-8.1-3.1-11.2,0c-2.7,2.7-3,6.9-1,10l-125.8,125.8
			c-3.1-2.1-7.3-1.8-10,1c-3.1,3.1-3.1,8.1,0,11.2c3.1,3.1,8.1,3.1,11.2,0c2.7-2.7,3-6.9,1-10l125.8-125.8
			C1355.8,83,1360,82.7,1362.7,80z"/>
		<radialGradient id="SVGID_27_" cx="701" cy="489" r="544.0147" gradientUnits="userSpaceOnUse">
			<stop  offset="0" style="stop-color:#10A7FF"/>
			<stop  offset="1" style="stop-color:#224099"/>
		</radialGradient>
		<path fill="url(#SVGID_27_)" d="M1222.8,303.1c-3.1,3.1-3.1,8.1,0,11.2c3.1,3.1,8.1,3.1,11.2,0c2.7-2.7,3-6.9,1-10L1400,139.1
			v-4.2l-167.2,167.2C1229.7,300.1,1225.5,300.4,1222.8,303.1z"/>
		<radialGradient id="SVGID_28_" cx="701" cy="489" r="544.0147" gradientUnits="userSpaceOnUse">
			<stop  offset="0" style="stop-color:#10A7FF"/>
			<stop  offset="1" style="stop-color:#224099"/>
		</radialGradient>
		<path fill="url(#SVGID_28_)" d="M556.2,784.4l-143-143c2.1-3.1,1.8-7.3-1-10c-3.1-3.1-8.1-3.1-11.2,0s-3.1,8.1,0,11.2
			c2.7,2.7,6.9,3,10,1L555,787.4h104.4L852,980h4.2L660.6,784.4H556.2z"/>
		<radialGradient id="SVGID_29_" cx="701" cy="489" r="544.0147" gradientUnits="userSpaceOnUse">
			<stop  offset="0" style="stop-color:#10A7FF"/>
			<stop  offset="1" style="stop-color:#224099"/>
		</radialGradient>
		<path fill="url(#SVGID_29_)" d="M55.2,936.8c-3.1-3.1-8.1-3.1-11.2,0c-3.1,3.1-3.1,8.1,0,11.2c2.7,2.7,6.9,3,10,1L85.1,980h4.2
			l-33.2-33.2C58.2,943.8,57.9,939.5,55.2,936.8z"/>
		<radialGradient id="SVGID_30_" cx="701" cy="489" r="544.0147" gradientUnits="userSpaceOnUse">
			<stop  offset="0" style="stop-color:#10A7FF"/>
			<stop  offset="1" style="stop-color:#224099"/>
		</radialGradient>
		<polygon fill="url(#SVGID_30_)" points="19.6,903.5 0,883.9 0,888.1 18.4,906.5 57.2,906.5 130.7,980 134.9,980 58.4,903.5 		"/>
		<radialGradient id="SVGID_31_" cx="701" cy="489" r="544.0147" gradientUnits="userSpaceOnUse">
			<stop  offset="0" style="stop-color:#10A7FF"/>
			<stop  offset="1" style="stop-color:#224099"/>
		</radialGradient>
		<path fill="url(#SVGID_31_)" d="M240,291.8l-96.4,96.4c-3.1-2.1-7.3-1.8-10,1c-3.1,3.1-3.1,8.1,0,11.2c3.1,3.1,8.1,3.1,11.2,0
			c2.7-2.7,3-6.9,1-10l96.9-96.9l0.4-0.4v-83L32.9,0h-4.2L240,211.3V291.8z"/>
		<radialGradient id="SVGID_32_" cx="701" cy="489" r="544.0147" gradientUnits="userSpaceOnUse">
			<stop  offset="0" style="stop-color:#10A7FF"/>
			<stop  offset="1" style="stop-color:#224099"/>
		</radialGradient>
		<polygon fill="url(#SVGID_32_)" points="218.3,216.7 1.6,0 0,0 0,2.7 215.3,217.9 215.3,291.3 0,506.5 0,510.8 218.3,292.5 		"/>
		<radialGradient id="SVGID_33_" cx="701" cy="489" r="544.0147" gradientUnits="userSpaceOnUse">
			<stop  offset="0" style="stop-color:#10A7FF"/>
			<stop  offset="1" style="stop-color:#224099"/>
		</radialGradient>
		<polygon fill="url(#SVGID_33_)" points="260.1,675.5 0,675.5 0,678.5 258.9,678.5 289.8,709.4 352.5,709.4 352.5,980 355.5,980 
			355.5,706.4 291,706.4 		"/>
		<radialGradient id="SVGID_34_" cx="701" cy="489" r="544.0147" gradientUnits="userSpaceOnUse">
			<stop  offset="0" style="stop-color:#10A7FF"/>
			<stop  offset="1" style="stop-color:#224099"/>
		</radialGradient>
		<path fill="url(#SVGID_34_)" d="M1351.6,400c-3.1,3.1-3.1,8.1,0,11.2c3.1,3.1,8.1,3.1,11.2,0c2.7-2.7,3-6.9,1-10l36.3-36.3v-4.2
			l-38.4,38.4C1358.5,397,1354.3,397.3,1351.6,400z"/>
		<radialGradient id="SVGID_35_" cx="701" cy="489" r="544.0147" gradientUnits="userSpaceOnUse">
			<stop  offset="0" style="stop-color:#10A7FF"/>
			<stop  offset="1" style="stop-color:#224099"/>
		</radialGradient>
		<polygon fill="url(#SVGID_35_)" points="115.4,757.4 77.1,719.1 0,719.1 0,722.1 75.8,722.1 112.4,758.6 112.4,812.9 279.5,980 
			283.7,980 115.4,811.7 		"/>
		<radialGradient id="SVGID_36_" cx="701" cy="489" r="544.0147" gradientUnits="userSpaceOnUse">
			<stop  offset="0" style="stop-color:#10A7FF"/>
			<stop  offset="1" style="stop-color:#224099"/>
		</radialGradient>
		<polygon fill="url(#SVGID_36_)" points="0,804.1 175.9,980 180.1,980 0,799.9 		"/>
		<radialGradient id="SVGID_37_" cx="701" cy="489" r="544.0147" gradientUnits="userSpaceOnUse">
			<stop  offset="0" style="stop-color:#10A7FF"/>
			<stop  offset="1" style="stop-color:#224099"/>
		</radialGradient>
		<path fill="url(#SVGID_37_)" d="M369.9,631.4c-3.1-3.1-8.1-3.1-11.2,0c-3.1,3.1-3.1,8.1,0,11.2c2.7,2.7,6.9,3,10,1l43.9,43.9
			v143.9l-36.4,36.4V980h3V869l36.4-36.4V686.2l-44.8-44.8C373,638.3,372.6,634.1,369.9,631.4z"/>
		<radialGradient id="SVGID_38_" cx="701" cy="489" r="544.0147" gradientUnits="userSpaceOnUse">
			<stop  offset="0" style="stop-color:#10A7FF"/>
			<stop  offset="1" style="stop-color:#224099"/>
		</radialGradient>
		<path fill="url(#SVGID_38_)" d="M1103.7,963.2l-92.6-92.6v-103L890.4,646.9c2.1-3.1,1.8-7.3-1-10c-3.1-3.1-8.1-3.1-11.2,0
			s-3.1,8.1,0,11.2c2.7,2.7,6.9,3,10,1L1008,768.8v103l94.4,94.4h29.5l13.8,13.8h4.2l-16.8-16.8H1103.7z"/>
		<radialGradient id="SVGID_39_" cx="701" cy="489" r="544.0147" gradientUnits="userSpaceOnUse">
			<stop  offset="0" style="stop-color:#10A7FF"/>
			<stop  offset="1" style="stop-color:#224099"/>
		</radialGradient>
		<path fill="url(#SVGID_39_)" d="M459.6,812.4c-3.1-3.1-8.1-3.1-11.2,0s-3.1,8.1,0,11.2c2.7,2.7,6.9,3,10,1L613.9,980h4.2
			L460.5,822.4C462.6,819.3,462.3,815.1,459.6,812.4z"/>
		<radialGradient id="SVGID_40_" cx="701" cy="489" r="544.0147" gradientUnits="userSpaceOnUse">
			<stop  offset="0" style="stop-color:#10A7FF"/>
			<stop  offset="1" style="stop-color:#224099"/>
		</radialGradient>
		<path fill="url(#SVGID_40_)" d="M799.3,245.9l-17.2,17.2c-3.1-2.1-7.3-1.8-10,1c-3.1,3.1-3.1,8.1,0,11.2c3.1,3.1,8.1,3.1,11.2,0
			c2.7-2.7,3-6.9,1-10l16.3-16.3h28.1l93.3-93.3c3.1,2.1,7.3,1.8,10-1c3.1-3.1,3.1-8.1,0-11.2c-3.1-3.1-8.1-3.1-11.2,0
			c-2.7,2.7-3,6.9-1,10l-92.4,92.4H799.3z"/>
		<radialGradient id="SVGID_41_" cx="701" cy="489" r="544.0147" gradientUnits="userSpaceOnUse">
			<stop  offset="0" style="stop-color:#10A7FF"/>
			<stop  offset="1" style="stop-color:#224099"/>
		</radialGradient>
		<path fill="url(#SVGID_41_)" d="M472.6,925.4c-3.1-3.1-8.1-3.1-11.2,0s-3.1,8.1,0,11.2c2.7,2.7,6.9,3,10,1l42.5,42.5h4.2
			l-44.6-44.6C475.6,932.3,475.3,928.1,472.6,925.4z"/>
		<radialGradient id="SVGID_42_" cx="701" cy="489" r="544.0147" gradientUnits="userSpaceOnUse">
			<stop  offset="0" style="stop-color:#10A7FF"/>
			<stop  offset="1" style="stop-color:#224099"/>
		</radialGradient>
		<path fill="url(#SVGID_42_)" d="M496.6,921.4c3.1,3.1,8.1,3.1,11.2,0c3.1-3.1,3.1-8.1,0-11.2c-2.7-2.7-6.9-3-10-1l-41.1-41.1
			l-35.2,35.2V980h3v-75.4l32.2-32.2l39,39C493.6,914.4,493.9,918.6,496.6,921.4z"/>
		<radialGradient id="SVGID_43_" cx="701" cy="489" r="544.0147" gradientUnits="userSpaceOnUse">
			<stop  offset="0" style="stop-color:#10A7FF"/>
			<stop  offset="1" style="stop-color:#224099"/>
		</radialGradient>
		<polygon fill="url(#SVGID_43_)" points="131.6,877.5 18.6,764.5 0,764.5 0,767.5 17.4,767.5 128.6,878.7 128.6,903.6 205,980 
			209.2,980 131.6,902.4 		"/>
		<radialGradient id="SVGID_44_" cx="701" cy="489" r="544.0147" gradientUnits="userSpaceOnUse">
			<stop  offset="0" style="stop-color:#10A7FF"/>
			<stop  offset="1" style="stop-color:#224099"/>
		</radialGradient>
		<path fill="url(#SVGID_44_)" d="M807.7,112.7c-0.7-3.6-3.9-6.4-7.7-6.4c-4.4,0-7.9,3.5-7.9,7.9c0,4.4,3.5,7.9,7.9,7.9
			c3.8,0,7-2.8,7.7-6.4h10.9L890,44.4V0h-3v43.1l-69.6,69.6H807.7z"/>
		<radialGradient id="SVGID_45_" cx="701" cy="489" r="544.0147" gradientUnits="userSpaceOnUse">
			<stop  offset="0" style="stop-color:#10A7FF"/>
			<stop  offset="1" style="stop-color:#224099"/>
		</radialGradient>
		<path fill="url(#SVGID_45_)" d="M731.9,128.2c-3.1,3.1-3.1,8.1,0,11.2s8.1,3.1,11.2,0c2.7-2.7,3-6.9,1-10l75.5-75.5V0h-3v52.6
			l-74.6,74.6C738.8,125.2,734.6,125.5,731.9,128.2z"/>
		<radialGradient id="SVGID_46_" cx="701" cy="489" r="544.0147" gradientUnits="userSpaceOnUse">
			<stop  offset="0" style="stop-color:#10A7FF"/>
			<stop  offset="1" style="stop-color:#224099"/>
		</radialGradient>
		<path fill="url(#SVGID_46_)" d="M1292.2,604.5c-3.1,3.1-3.1,8.1,0,11.2c3.1,3.1,8.1,3.1,11.2,0c2.7-2.7,3-6.9,1-10L1400,510v-4.2
			l-97.8,97.8C1299.1,601.5,1294.9,601.8,1292.2,604.5z"/>
		<radialGradient id="SVGID_47_" cx="701" cy="489" r="544.0147" gradientUnits="userSpaceOnUse">
			<stop  offset="0" style="stop-color:#10A7FF"/>
			<stop  offset="1" style="stop-color:#224099"/>
		</radialGradient>
		<polygon fill="url(#SVGID_47_)" points="1132,815.8 1296.2,980 1300.5,980 1135,814.5 1135,729.2 1400,464.2 1400,459.9 
			1132,727.9 		"/>
		<radialGradient id="SVGID_48_" cx="701" cy="489" r="544.0147" gradientUnits="userSpaceOnUse">
			<stop  offset="0" style="stop-color:#10A7FF"/>
			<stop  offset="1" style="stop-color:#224099"/>
		</radialGradient>
		<polygon fill="url(#SVGID_48_)" points="1112.4,819.2 1273.2,980 1277.5,980 1115.4,817.9 1115.4,729.2 1400,444.5 1400,440.3 
			1112.4,727.9 		"/>
		<radialGradient id="SVGID_49_" cx="701" cy="489" r="544.0147" gradientUnits="userSpaceOnUse">
			<stop  offset="0" style="stop-color:#10A7FF"/>
			<stop  offset="1" style="stop-color:#224099"/>
		</radialGradient>
		<polygon fill="url(#SVGID_49_)" points="283.2,201.8 81.4,0 77.1,0 280.2,203 280.2,291.8 0,572 0,576.2 283.2,293 		"/>
		<radialGradient id="SVGID_50_" cx="701" cy="489" r="544.0147" gradientUnits="userSpaceOnUse">
			<stop  offset="0" style="stop-color:#10A7FF"/>
			<stop  offset="1" style="stop-color:#224099"/>
		</radialGradient>
		<path fill="url(#SVGID_50_)" d="M688.5,311.4c-3.6,0.7-6.4,3.9-6.4,7.7c0,4.4,3.5,7.9,7.9,7.9s7.9-3.5,7.9-7.9
			c0-3.8-2.8-7-6.4-7.7V134.4l78.2-78.2V0h-3v55l-78.2,78.2V311.4z"/>
		<radialGradient id="SVGID_51_" cx="701" cy="489" r="544.0147" gradientUnits="userSpaceOnUse">
			<stop  offset="0" style="stop-color:#10A7FF"/>
			<stop  offset="1" style="stop-color:#224099"/>
		</radialGradient>
		<path fill="url(#SVGID_51_)" d="M331,70.5c3.1,3.1,8.1,3.1,11.2,0c3.1-3.1,3.1-8.1,0-11.2c-2.7-2.7-6.9-3-10-1L273.8,0h-4.2
			l60.5,60.5C328,63.5,328.3,67.8,331,70.5z"/>
		<radialGradient id="SVGID_52_" cx="701" cy="489" r="544.0147" gradientUnits="userSpaceOnUse">
			<stop  offset="0" style="stop-color:#10A7FF"/>
			<stop  offset="1" style="stop-color:#224099"/>
		</radialGradient>
		<path fill="url(#SVGID_52_)" d="M555,77.4c3.1,3.1,8.1,3.1,11.2,0c3.1-3.1,3.1-8.1,0-11.2c-2.7-2.7-6.9-3-10-1l-34.9-34.9V0h-3
			v31.6L554,67.4C551.9,70.5,552.2,74.7,555,77.4z"/>
		<radialGradient id="SVGID_53_" cx="701" cy="489" r="544.0147" gradientUnits="userSpaceOnUse">
			<stop  offset="0" style="stop-color:#10A7FF"/>
			<stop  offset="1" style="stop-color:#224099"/>
		</radialGradient>
		<path fill="url(#SVGID_53_)" d="M337.5,308.6l167.6,167.6c-2.1,3.1-1.8,7.3,1,10c3.1,3.1,8.1,3.1,11.2,0c3.1-3.1,3.1-8.1,0-11.2
			c-2.7-2.7-6.9-3-10-1L340.5,307.4V206.7L133.8,0h-4.2l208,208V308.6z"/>
		<radialGradient id="SVGID_54_" cx="701" cy="489" r="544.0147" gradientUnits="userSpaceOnUse">
			<stop  offset="0" style="stop-color:#10A7FF"/>
			<stop  offset="1" style="stop-color:#224099"/>
		</radialGradient>
		<path fill="url(#SVGID_54_)" d="M291.9,57.8l92.6,92.6v103L505.1,374c-2.1,3.1-1.8,7.3,1,10c3.1,3.1,8.1,3.1,11.2,0
			c3.1-3.1,3.1-8.1,0-11.2c-2.7-2.7-6.9-3-10-1L387.5,252.1v-103l-94.4-94.4h-29.5L208.9,0h-4.2l57.8,57.8H291.9z"/>
		<radialGradient id="SVGID_55_" cx="701" cy="489" r="544.0147" gradientUnits="userSpaceOnUse">
			<stop  offset="0" style="stop-color:#10A7FF"/>
			<stop  offset="1" style="stop-color:#224099"/>
		</radialGradient>
		<path fill="url(#SVGID_55_)" d="M601.1,311.4c-3.6,0.7-6.4,3.9-6.4,7.7c0,4.4,3.5,7.9,7.9,7.9c4.4,0,7.9-3.5,7.9-7.9
			c0-3.8-2.8-7-6.4-7.7v-94.5L387.2,0H383l218.1,218.1V311.4z"/>
		<radialGradient id="SVGID_56_" cx="701" cy="489" r="544.0147" gradientUnits="userSpaceOnUse">
			<stop  offset="0" style="stop-color:#10A7FF"/>
			<stop  offset="1" style="stop-color:#224099"/>
		</radialGradient>
		<path fill="url(#SVGID_56_)" d="M631.9,311.4c-3.6,0.7-6.4,3.9-6.4,7.7c0,4.4,3.5,7.9,7.9,7.9c4.4,0,7.9-3.5,7.9-7.9
			c0-3.8-2.8-7-6.4-7.7V189.8L481.5,36.4c0-3.2,0.3-17.9,0.4-32.4c0-1.4,0-2.7,0-4h-3c-0.1,12.1-0.2,25.8-0.4,37l0,0.6L631.9,191
			V311.4z"/>
		<radialGradient id="SVGID_57_" cx="701" cy="489" r="544.0147" gradientUnits="userSpaceOnUse">
			<stop  offset="0" style="stop-color:#10A7FF"/>
			<stop  offset="1" style="stop-color:#224099"/>
		</radialGradient>
		<path fill="url(#SVGID_57_)" d="M751,159.2l-36.5,36.5v115.6c-3.6,0.7-6.4,3.9-6.4,7.7c0,4.4,3.5,7.9,7.9,7.9s7.9-3.5,7.9-7.9
			c0-3.8-2.8-7-6.4-7.7V197l34.8-34.8h63.3L977.8,0h-4.2L814.4,159.2H751z"/>
		<radialGradient id="SVGID_58_" cx="701" cy="489" r="544.0147" gradientUnits="userSpaceOnUse">
			<stop  offset="0" style="stop-color:#10A7FF"/>
			<stop  offset="1" style="stop-color:#224099"/>
		</radialGradient>
		<path fill="url(#SVGID_58_)" d="M646.6,936.8c-3.1-3.1-8.1-3.1-11.2,0s-3.1,8.1,0,11.2c2.7,2.7,6.9,3,10,1l31.1,31.1h4.2
			l-33.2-33.2C649.6,943.8,649.3,939.5,646.6,936.8z"/>
		<radialGradient id="SVGID_59_" cx="701" cy="489" r="544.0147" gradientUnits="userSpaceOnUse">
			<stop  offset="0" style="stop-color:#10A7FF"/>
			<stop  offset="1" style="stop-color:#224099"/>
		</radialGradient>
		<path fill="url(#SVGID_59_)" d="M876.1,857.4c-3.1-3.1-8.1-3.1-11.2,0s-3.1,8.1,0,11.2c2.7,2.7,6.9,3,10,1L985.4,980h4.2
			L877,867.4C879.1,864.3,878.8,860.1,876.1,857.4z"/>
		<radialGradient id="SVGID_60_" cx="701" cy="489" r="544.0147" gradientUnits="userSpaceOnUse">
			<stop  offset="0" style="stop-color:#10A7FF"/>
			<stop  offset="1" style="stop-color:#224099"/>
		</radialGradient>
		<path fill="url(#SVGID_60_)" d="M93.4,249.3c3.1,2.1,7.3,1.8,10-1c3.1-3.1,3.1-8.1,0-11.2c-3.1-3.1-8.1-3.1-11.2,0
			c-2.7,2.7-3,6.9-1,10l-25.3,25.3L0,206.5v4.2l65.9,65.9L93.4,249.3z"/>
		<radialGradient id="SVGID_61_" cx="701" cy="489" r="544.0147" gradientUnits="userSpaceOnUse">
			<stop  offset="0" style="stop-color:#10A7FF"/>
			<stop  offset="1" style="stop-color:#224099"/>
		</radialGradient>
		<path fill="url(#SVGID_61_)" d="M594.5,758.6l-104-104c2.1-3.1,1.8-7.3-1-10c-3.1-3.1-8.1-3.1-11.2,0c-3.1,3.1-3.1,8.1,0,11.2
			c2.7,2.7,6.9,3,10,1l104.9,104.9h66.1L877.8,980h4.2L660.6,758.6H594.5z"/>
		<radialGradient id="SVGID_62_" cx="701" cy="489" r="544.0147" gradientUnits="userSpaceOnUse">
			<stop  offset="0" style="stop-color:#10A7FF"/>
			<stop  offset="1" style="stop-color:#224099"/>
		</radialGradient>
		<path fill="url(#SVGID_62_)" d="M641.2,731.5L573,663.4c2.1-3.1,1.8-7.3-1-10c-3.1-3.1-8.1-3.1-11.2,0s-3.1,8.1,0,11.2
			c2.7,2.7,6.9,3,10,1l69,69h22.5L907.8,980h4.2L663.6,731.5H641.2z"/>
		<radialGradient id="SVGID_63_" cx="701" cy="489" r="544.0147" gradientUnits="userSpaceOnUse">
			<stop  offset="0" style="stop-color:#10A7FF"/>
			<stop  offset="1" style="stop-color:#224099"/>
		</radialGradient>
		<path fill="url(#SVGID_63_)" d="M824.1,857.4c-3.1-3.1-8.1-3.1-11.2,0c-3.1,3.1-3.1,8.1,0,11.2c2.7,2.7,6.9,3,10,1L933.4,980h4.2
			L825,867.4C827.1,864.3,826.8,860.1,824.1,857.4z"/>
		<radialGradient id="SVGID_64_" cx="701" cy="489" r="544.0147" gradientUnits="userSpaceOnUse">
			<stop  offset="0" style="stop-color:#10A7FF"/>
			<stop  offset="1" style="stop-color:#224099"/>
		</radialGradient>
		<path fill="url(#SVGID_64_)" d="M550,813.7l-84.7-84.7c2.1-3.1,1.8-7.3-1-10c-3.1-3.1-8.1-3.1-11.2,0s-3.1,8.1,0,11.2
			c2.7,2.7,6.9,3,10,1l85.6,85.6h98.7L810.7,980h4.2L648.6,813.7H550z"/>
		<radialGradient id="SVGID_65_" cx="701" cy="489" r="544.0147" gradientUnits="userSpaceOnUse">
			<stop  offset="0" style="stop-color:#10A7FF"/>
			<stop  offset="1" style="stop-color:#224099"/>
		</radialGradient>
		<path fill="url(#SVGID_65_)" d="M314.7,849.4l-47-47h-46.1L144.2,725c2.1-3.1,1.8-7.3-1-10c-3.1-3.1-8.1-3.1-11.2,0
			c-3.1,3.1-3.1,8.1,0,11.2c2.7,2.7,6.9,3,10,1l78.2,78.2h46.1l46.2,46.2c-2.1,3.1-1.8,7.3,1,10c3.1,3.1,8.1,3.1,11.2,0
			s3.1-8.1,0-11.2C322,847.6,317.7,847.3,314.7,849.4z"/>
		<radialGradient id="SVGID_66_" cx="701" cy="489" r="544.0147" gradientUnits="userSpaceOnUse">
			<stop  offset="0" style="stop-color:#10A7FF"/>
			<stop  offset="1" style="stop-color:#224099"/>
		</radialGradient>
		<path fill="url(#SVGID_66_)" d="M60.8,317.6l63.6-63.6c3.1,2.1,7.3,1.8,10-1c3.1-3.1,3.1-8.1,0-11.2c-3.1-3.1-8.1-3.1-11.2,0
			c-2.7,2.7-3,6.9-1,10l-64.5,64.5V365L0,422.9v4.2l60.8-60.8V317.6z"/>
		<radialGradient id="SVGID_67_" cx="701" cy="489" r="544.0147" gradientUnits="userSpaceOnUse">
			<stop  offset="0" style="stop-color:#10A7FF"/>
			<stop  offset="1" style="stop-color:#224099"/>
		</radialGradient>
		<path fill="url(#SVGID_67_)" d="M202.7,706.4c-3.1-3.1-8.1-3.1-11.2,0s-3.1,8.1,0,11.2c2.7,2.7,6.9,3,10,1l27.1,27.1h76.2
			c0.7,3.6,3.9,6.4,7.7,6.4c4.4,0,7.9-3.5,7.9-7.9c0-4.4-3.5-7.9-7.9-7.9c-3.8,0-7,2.8-7.7,6.4h-75l-26.2-26.2
			C205.7,713.3,205.4,709.1,202.7,706.4z"/>
		<radialGradient id="SVGID_68_" cx="701" cy="489" r="544.0147" gradientUnits="userSpaceOnUse">
			<stop  offset="0" style="stop-color:#10A7FF"/>
			<stop  offset="1" style="stop-color:#224099"/>
		</radialGradient>
		<path fill="url(#SVGID_68_)" d="M308.2,941.5L181.9,815.2c2.1-3.1,1.8-7.3-1-10c-3.1-3.1-8.1-3.1-11.2,0c-3.1,3.1-3.1,8.1,0,11.2
			c2.7,2.7,6.9,3,10,1L306,943.6c-2.1,3.1-1.8,7.3,1,10c3.1,3.1,8.1,3.1,11.2,0s3.1-8.1,0-11.2C315.4,939.7,311.2,939.4,308.2,941.5
			z"/>
		<radialGradient id="SVGID_69_" cx="701" cy="489" r="544.0147" gradientUnits="userSpaceOnUse">
			<stop  offset="0" style="stop-color:#10A7FF"/>
			<stop  offset="1" style="stop-color:#224099"/>
		</radialGradient>
		<path fill="url(#SVGID_69_)" d="M451.6,752.4c-3.1-3.1-8.1-3.1-11.2,0s-3.1,8.1,0,11.2c2.7,2.7,6.9,3,10,1l147.1,147.1h35.8
			c0.7,3.6,3.9,6.4,7.7,6.4c4.4,0,7.9-3.5,7.9-7.9c0-4.4-3.5-7.9-7.9-7.9c-3.8,0-7,2.8-7.7,6.4h-34.5L452.5,762.4
			C454.6,759.3,454.3,755.1,451.6,752.4z"/>
		<radialGradient id="SVGID_70_" cx="701" cy="489" r="544.0147" gradientUnits="userSpaceOnUse">
			<stop  offset="0" style="stop-color:#10A7FF"/>
			<stop  offset="1" style="stop-color:#224099"/>
		</radialGradient>
		<path fill="url(#SVGID_70_)" d="M312.6,767.1c-3.8,0-7,2.8-7.7,6.4h-49.1c-0.7-3.6-3.9-6.4-7.7-6.4c-4.4,0-7.9,3.5-7.9,7.9
			s3.5,7.9,7.9,7.9c3.8,0,7-2.8,7.7-6.4h49.1c0.7,3.6,3.9,6.4,7.7,6.4c4.4,0,7.9-3.5,7.9-7.9S316.9,767.1,312.6,767.1z"/>
		<radialGradient id="SVGID_71_" cx="701" cy="489" r="544.0147" gradientUnits="userSpaceOnUse">
			<stop  offset="0" style="stop-color:#10A7FF"/>
			<stop  offset="1" style="stop-color:#224099"/>
		</radialGradient>
		<path fill="url(#SVGID_71_)" d="M622.7,858.2c-0.7-3.6-3.9-6.4-7.7-6.4c-4.4,0-7.9,3.5-7.9,7.9c0,4.4,3.5,7.9,7.9,7.9
			c3.8,0,7-2.8,7.7-6.4h20.9L762.4,980h4.2L644.9,858.2H622.7z"/>
		<radialGradient id="SVGID_72_" cx="701" cy="489" r="544.0147" gradientUnits="userSpaceOnUse">
			<stop  offset="0" style="stop-color:#10A7FF"/>
			<stop  offset="1" style="stop-color:#224099"/>
		</radialGradient>
		<path fill="url(#SVGID_72_)" d="M1348.6,797.9c-3.1-3.1-8.1-3.1-11.2,0s-3.1,8.1,0,11.2c2.7,2.7,6.9,3,10,1l52.5,52.5v-4.2
			l-50.4-50.4C1351.7,804.8,1351.3,800.6,1348.6,797.9z"/>
		<radialGradient id="SVGID_73_" cx="701" cy="489" r="544.0147" gradientUnits="userSpaceOnUse">
			<stop  offset="0" style="stop-color:#10A7FF"/>
			<stop  offset="1" style="stop-color:#224099"/>
		</radialGradient>
		<polygon fill="url(#SVGID_73_)" points="1362.7,726.9 1400,764.2 1400,760 1365.7,725.6 1365.7,695.9 1400,661.6 1400,657.3 
			1362.7,694.7 		"/>
		<radialGradient id="SVGID_74_" cx="701" cy="489" r="544.0147" gradientUnits="userSpaceOnUse">
			<stop  offset="0" style="stop-color:#10A7FF"/>
			<stop  offset="1" style="stop-color:#224099"/>
		</radialGradient>
		<path fill="url(#SVGID_74_)" d="M1288.4,841.7l-74.3-74.3c2.1-3.1,1.8-7.3-1-10c-3.1-3.1-8.1-3.1-11.2,0s-3.1,8.1,0,11.2
			c2.7,2.7,6.9,3,10,1l75.2,75.2h41.8l71.1,71.1v-4.2l-69.8-69.8H1288.4z"/>
		<radialGradient id="SVGID_75_" cx="701" cy="489" r="544.0147" gradientUnits="userSpaceOnUse">
			<stop  offset="0" style="stop-color:#10A7FF"/>
			<stop  offset="1" style="stop-color:#224099"/>
		</radialGradient>
		<path fill="url(#SVGID_75_)" d="M1302.2,771.6c-3.1-2.1-7.3-1.8-10,1c-3.1,3.1-3.1,8.1,0,11.2c3.1,3.1,8.1,3.1,11.2,0
			c2.7-2.7,3-6.9,1-10l25.3-25.3l70.4,70.4v-4.2l-70.4-70.4L1302.2,771.6z"/>
		<radialGradient id="SVGID_76_" cx="701" cy="489" r="544.0147" gradientUnits="userSpaceOnUse">
			<stop  offset="0" style="stop-color:#10A7FF"/>
			<stop  offset="1" style="stop-color:#224099"/>
		</radialGradient>
		<path fill="url(#SVGID_76_)" d="M1337.6,900.4c-3.1-3.1-8.1-3.1-11.2,0s-3.1,8.1,0,11.2c2.7,2.7,6.9,3,10,1L1400,976v-4.2
			l-61.4-61.4C1340.7,907.3,1340.3,903.1,1337.6,900.4z"/>
		<radialGradient id="SVGID_77_" cx="701" cy="489" r="544.0147" gradientUnits="userSpaceOnUse">
			<stop  offset="0" style="stop-color:#10A7FF"/>
			<stop  offset="1" style="stop-color:#224099"/>
		</radialGradient>
		<path fill="url(#SVGID_77_)" d="M1334.7,703.3l-63.6,63.6c-3.1-2.1-7.3-1.8-10,1c-3.1,3.1-3.1,8.1,0,11.2c3.1,3.1,8.1,3.1,11.2,0
			c2.7-2.7,3-6.9,1-10l64.5-64.5v-48.7l62.3-62.3v-4.2l-65.3,65.3V703.3z"/>
		<radialGradient id="SVGID_78_" cx="701" cy="489" r="544.0147" gradientUnits="userSpaceOnUse">
			<stop  offset="0" style="stop-color:#10A7FF"/>
			<stop  offset="1" style="stop-color:#224099"/>
		</radialGradient>
		<path fill="url(#SVGID_78_)" d="M748,311.2c-4.4,0-7.9,3.5-7.9,7.9c0,4.4,3.5,7.9,7.9,7.9c3.8,0,7-2.8,7.7-6.4h52.9l161.2-161.2
			c3.1,2.1,7.3,1.8,10-1c3.1-3.1,3.1-8.1,0-11.2c-3.1-3.1-8.1-3.1-11.2,0c-2.7,2.7-3,6.9-1,10L807.4,317.6h-51.6
			C755,314,751.8,311.2,748,311.2z"/>
		<radialGradient id="SVGID_79_" cx="701" cy="489" r="544.0147" gradientUnits="userSpaceOnUse">
			<stop  offset="0" style="stop-color:#10A7FF"/>
			<stop  offset="1" style="stop-color:#224099"/>
		</radialGradient>
		<path fill="url(#SVGID_79_)" d="M783.1,801.4l-138-138c2.1-3.1,1.8-7.3-1-10c-3.1-3.1-8.1-3.1-11.2,0s-3.1,8.1,0,11.2
			c2.7,2.7,6.9,3,10,1l138.9,138.9h92.5L1049.9,980h4.2L875.6,801.4H783.1z"/>
		<radialGradient id="SVGID_80_" cx="701" cy="489" r="544.0147" gradientUnits="userSpaceOnUse">
			<stop  offset="0" style="stop-color:#10A7FF"/>
			<stop  offset="1" style="stop-color:#224099"/>
		</radialGradient>
		<path fill="url(#SVGID_80_)" d="M1111,930.6l-85.3-85.3V743.7L890.4,608.4c2.1-3.1,1.8-7.3-1-10c-3.1-3.1-8.1-3.1-11.2,0
			s-3.1,8.1,0,11.2c2.7,2.7,6.9,3,10,1l134.4,134.4v101.7l87,87h25.7l46.4,46.4h4.2l-49.4-49.4H1111z"/>
		<radialGradient id="SVGID_81_" cx="701" cy="489" r="544.0147" gradientUnits="userSpaceOnUse">
			<stop  offset="0" style="stop-color:#10A7FF"/>
			<stop  offset="1" style="stop-color:#224099"/>
		</radialGradient>
		<path fill="url(#SVGID_81_)" d="M981,776.4l-90.6-90.6c2.1-3.1,1.8-7.3-1-10c-3.1-3.1-8.1-3.1-11.2,0c-3.1,3.1-3.1,8.1,0,11.2
			c2.7,2.7,6.9,3,10,1l89.7,89.7v99.7L1080.7,980h4.2L981,876.1V776.4z"/>
		<radialGradient id="SVGID_82_" cx="701" cy="489" r="544.0147" gradientUnits="userSpaceOnUse">
			<stop  offset="0" style="stop-color:#10A7FF"/>
			<stop  offset="1" style="stop-color:#224099"/>
		</radialGradient>
		<path fill="url(#SVGID_82_)" d="M1058,712.3L890.4,544.7c2.1-3.1,1.8-7.3-1-10c-3.1-3.1-8.1-3.1-11.2,0s-3.1,8.1,0,11.2
			c2.7,2.7,6.9,3,10,1L1055,713.6v100.7L1220.8,980h4.2l-167-167V712.3z"/>
		<radialGradient id="SVGID_83_" cx="701" cy="489" r="544.0147" gradientUnits="userSpaceOnUse">
			<stop  offset="0" style="stop-color:#10A7FF"/>
			<stop  offset="1" style="stop-color:#224099"/>
		</radialGradient>
		<polygon fill="url(#SVGID_83_)" points="1091.7,823.4 1248.3,980 1252.6,980 1094.7,822.2 1094.7,729.2 1400,423.9 1400,419.7 
			1091.7,727.9 		"/>
		<radialGradient id="SVGID_84_" cx="701" cy="489" r="544.0147" gradientUnits="userSpaceOnUse">
			<stop  offset="0" style="stop-color:#10A7FF"/>
			<stop  offset="1" style="stop-color:#224099"/>
		</radialGradient>
		<polygon fill="url(#SVGID_84_)" points="1152.5,810.9 1321.7,980 1325.9,980 1155.5,809.6 1155.5,729.1 1400,484.7 1400,480.4 
			1152.5,727.9 		"/>
		<radialGradient id="SVGID_85_" cx="701" cy="489" r="544.0147" gradientUnits="userSpaceOnUse">
			<stop  offset="0" style="stop-color:#10A7FF"/>
			<stop  offset="1" style="stop-color:#224099"/>
		</radialGradient>
		<path fill="url(#SVGID_85_)" d="M1180.3,729.7l63.8-63.8c3.1,2.1,7.3,1.8,10-1c3.1-3.1,3.1-8.1,0-11.2c-3.1-3.1-8.1-3.1-11.2,0
			c-2.7,2.7-3,6.9-1,10l-64.7,64.7v75.8L1353,980h4.2l-177-177V729.7z"/>
		<radialGradient id="SVGID_86_" cx="701" cy="489" r="544.0147" gradientUnits="userSpaceOnUse">
			<stop  offset="0" style="stop-color:#10A7FF"/>
			<stop  offset="1" style="stop-color:#224099"/>
		</radialGradient>
		<path fill="url(#SVGID_86_)" d="M355.6,352.5h-68.2L112,527.9v61.6h391.9c0.7,3.6,3.9,6.4,7.7,6.4c4.4,0,7.9-3.5,7.9-7.9
			s-3.5-7.9-7.9-7.9c-3.8,0-7,2.8-7.7,6.4H115v-57.4l173.6-173.6h65.8l118.1,118.1v19.6c-3.6,0.7-6.4,3.9-6.4,7.7
			c0,4.4,3.5,7.9,7.9,7.9c4.4,0,7.9-3.5,7.9-7.9c0-3.8-2.8-7-6.4-7.7v-20.9L355.6,352.5z"/>
		<radialGradient id="SVGID_87_" cx="701" cy="489" r="544.0147" gradientUnits="userSpaceOnUse">
			<stop  offset="0" style="stop-color:#10A7FF"/>
			<stop  offset="1" style="stop-color:#224099"/>
		</radialGradient>
		<path fill="url(#SVGID_87_)" d="M208.4,461.5l-72.2,72.2v28.8h323.1c0.7,3.6,3.9,6.4,7.7,6.4c4.4,0,7.9-3.5,7.9-7.9
			s-3.5-7.9-7.9-7.9c-3.8,0-7,2.8-7.7,6.4H139.2V535l70.5-70.5H237l78-78c3.1,2.1,7.3,1.8,10-1c3.1-3.1,3.1-8.1,0-11.2
			c-3.1-3.1-8.1-3.1-11.2,0c-2.7,2.7-3,6.9-1,10l-77.1,77.1H208.4z"/>
		<radialGradient id="SVGID_88_" cx="701" cy="489" r="544.0147" gradientUnits="userSpaceOnUse">
			<stop  offset="0" style="stop-color:#10A7FF"/>
			<stop  offset="1" style="stop-color:#224099"/>
		</radialGradient>
		<path fill="url(#SVGID_88_)" d="M72.2,605l30.4,30.4h192c0.7,3.6,3.9,6.4,7.7,6.4c4.4,0,7.9-3.5,7.9-7.9c0-4.4-3.5-7.9-7.9-7.9
			c-3.8,0-7,2.8-7.7,6.4H103.8L73.4,602H30.9L0,632.9v4.2L32.1,605H72.2z"/>
		<radialGradient id="SVGID_89_" cx="701" cy="489" r="544.0147" gradientUnits="userSpaceOnUse">
			<stop  offset="0" style="stop-color:#10A7FF"/>
			<stop  offset="1" style="stop-color:#224099"/>
		</radialGradient>
		<path fill="url(#SVGID_89_)" d="M322.4,449.3L283.7,488h-22.4L219.4,530c-3.1-2.1-7.3-1.8-10,1c-3.1,3.1-3.1,8.1,0,11.2
			s8.1,3.1,11.2,0c2.7-2.7,3-6.9,1-10l41-41H285l40.5-40.5v-24.9L338,413c3.1,2.1,7.3,1.8,10-1c3.1-3.1,3.1-8.1,0-11.2
			c-3.1-3.1-8.1-3.1-11.2,0c-2.7,2.7-3,6.9-1,10l-13.5,13.5V449.3z"/>
		<radialGradient id="SVGID_90_" cx="701" cy="489" r="544.0147" gradientUnits="userSpaceOnUse">
			<stop  offset="0" style="stop-color:#10A7FF"/>
			<stop  offset="1" style="stop-color:#224099"/>
		</radialGradient>
		<path fill="url(#SVGID_90_)" d="M303.8,197.6L157.9,51.7c2.1-3.1,1.8-7.3-1-10c-3.1-3.1-8.1-3.1-11.2,0c-3.1,3.1-3.1,8.1,0,11.2
			c2.7,2.7,6.9,3,10,1l145,145v93L0,592.6v4.2L303.8,293V197.6z"/>
		<radialGradient id="SVGID_91_" cx="701" cy="489" r="544.0147" gradientUnits="userSpaceOnUse">
			<stop  offset="0" style="stop-color:#10A7FF"/>
			<stop  offset="1" style="stop-color:#224099"/>
		</radialGradient>
		<path fill="url(#SVGID_91_)" d="M412.2,475.1c-3.1-3.1-8.1-3.1-11.2,0s-3.1,8.1,0,11.2c2.7,2.7,6.9,3,10,1l41,41
			c-2.1,3.1-1.8,7.3,1,10c3.1,3.1,8.1,3.1,11.2,0s3.1-8.1,0-11.2c-2.7-2.7-6.9-3-10-1l-41-41C415.3,482,415,477.8,412.2,475.1z"/>
		<radialGradient id="SVGID_92_" cx="701" cy="489" r="544.0147" gradientUnits="userSpaceOnUse">
			<stop  offset="0" style="stop-color:#10A7FF"/>
			<stop  offset="1" style="stop-color:#224099"/>
		</radialGradient>
		<path fill="url(#SVGID_92_)" d="M157,309.6c3.1-3.1,3.1-8.1,0-11.2s-8.1-3.1-11.2,0c-2.7,2.7-3,6.9-1,10L0,453.3v4.2l147-147
			C150.1,312.7,154.3,312.4,157,309.6z"/>
		<radialGradient id="SVGID_93_" cx="701" cy="489" r="544.0147" gradientUnits="userSpaceOnUse">
			<stop  offset="0" style="stop-color:#10A7FF"/>
			<stop  offset="1" style="stop-color:#224099"/>
		</radialGradient>
		<path fill="url(#SVGID_93_)" d="M97.9,447.2c3.1-3.1,3.1-8.1,0-11.2c-3.1-3.1-8.1-3.1-11.2,0c-2.7,2.7-3,6.9-1,10L0,531.8v4.2
			l87.9-87.9C91,450.3,95.2,449.9,97.9,447.2z"/>
		<radialGradient id="SVGID_94_" cx="701" cy="489" r="544.0147" gradientUnits="userSpaceOnUse">
			<stop  offset="0" style="stop-color:#10A7FF"/>
			<stop  offset="1" style="stop-color:#224099"/>
		</radialGradient>
		<path fill="url(#SVGID_94_)" d="M627.8,97.5c-3.1,3.1-3.1,8.1,0,11.2c3.1,3.1,8.1,3.1,11.2,0c2.7-2.7,3-6.9,1-10l43.4-43.4h28.9
			c0.7,3.6,3.9,6.4,7.7,6.4c4.4,0,7.9-3.5,7.9-7.9c0-4.4-3.5-7.9-7.9-7.9c-3.8,0-7,2.8-7.7,6.4h-30.1l-44.3,44.3
			C634.8,94.5,630.6,94.8,627.8,97.5z"/>
		<radialGradient id="SVGID_95_" cx="701" cy="489" r="544.0147" gradientUnits="userSpaceOnUse">
			<stop  offset="0" style="stop-color:#10A7FF"/>
			<stop  offset="1" style="stop-color:#224099"/>
		</radialGradient>
		<path fill="url(#SVGID_95_)" d="M945.4,82.5l-121,121h-34.5l-48,48c-3.1-2.1-7.3-1.8-10,1c-3.1,3.1-3.1,8.1,0,11.2s8.1,3.1,11.2,0
			c2.7-2.7,3-6.9,1-10l47.1-47.1h34.5l121-121h105.1L1137.2,0h-4.2l-82.5,82.5H945.4z"/>
		<radialGradient id="SVGID_96_" cx="701" cy="489" r="544.0147" gradientUnits="userSpaceOnUse">
			<stop  offset="0" style="stop-color:#10A7FF"/>
			<stop  offset="1" style="stop-color:#224099"/>
		</radialGradient>
		<path fill="url(#SVGID_96_)" d="M967.8,45c0,4.4,3.5,7.9,7.9,7.9c3.8,0,7-2.8,7.7-6.4h35.2L1065.1,0h-4.2l-43.5,43.5h-33.9
			c-0.7-3.6-3.9-6.4-7.7-6.4C971.3,37.1,967.8,40.7,967.8,45z"/>
		<radialGradient id="SVGID_97_" cx="701" cy="489" r="544.0147" gradientUnits="userSpaceOnUse">
			<stop  offset="0" style="stop-color:#10A7FF"/>
			<stop  offset="1" style="stop-color:#224099"/>
		</radialGradient>
		<path fill="url(#SVGID_97_)" d="M349.9,501.7l-9.1,9.1c-3.1-2.1-7.3-1.8-10,1c-3.1,3.1-3.1,8.1,0,11.2c3.1,3.1,8.1,3.1,11.2,0
			c2.7-2.7,3-6.9,1-10l8.2-8.2H379l7.2-7.2c3.1,2.1,7.3,1.8,10-1c3.1-3.1,3.1-8.1,0-11.2s-8.1-3.1-11.2,0c-2.7,2.7-3,6.9-1,10
			l-6.3,6.3H349.9z"/>
		<radialGradient id="SVGID_98_" cx="701" cy="489" r="544.0147" gradientUnits="userSpaceOnUse">
			<stop  offset="0" style="stop-color:#10A7FF"/>
			<stop  offset="1" style="stop-color:#224099"/>
		</radialGradient>
		<path fill="url(#SVGID_98_)" d="M660.5,311.4c-3.6,0.7-6.4,3.9-6.4,7.7c0,4.4,3.5,7.9,7.9,7.9s7.9-3.5,7.9-7.9
			c0-3.8-2.8-7-6.4-7.7v-128l-66.9-66.9V55.6L652.2,0H648l-54.4,54.4v63.3l66.9,66.9V311.4z"/>
		<radialGradient id="SVGID_99_" cx="701" cy="489" r="544.0147" gradientUnits="userSpaceOnUse">
			<stop  offset="0" style="stop-color:#10A7FF"/>
			<stop  offset="1" style="stop-color:#224099"/>
		</radialGradient>
		<path fill="url(#SVGID_99_)" d="M506.1,345.2c3.1,3.1,8.1,3.1,11.2,0s3.1-8.1,0-11.2c-2.7-2.7-6.9-3-10-1l-89.7-89.7v-99.7
			l-26.8-26.8c2.1-3.1,1.8-7.3-1-10c-3.1-3.1-8.1-3.1-11.2,0c-3.1,3.1-3.1,8.1,0,11.2c2.7,2.7,6.9,3,10,1l26,26v99.7l90.6,90.6
			C503,338.3,503.4,342.5,506.1,345.2z"/>
		<radialGradient id="SVGID_100_" cx="701" cy="489" r="544.0147" gradientUnits="userSpaceOnUse">
			<stop  offset="0" style="stop-color:#10A7FF"/>
			<stop  offset="1" style="stop-color:#224099"/>
		</radialGradient>
		<path fill="url(#SVGID_100_)" d="M319.7,528.6c-4.4,0-7.9,3.5-7.9,7.9s3.5,7.9,7.9,7.9c3.8,0,7-2.8,7.7-6.4h73.8
			c0.7,3.6,3.9,6.4,7.7,6.4c4.4,0,7.9-3.5,7.9-7.9s-3.5-7.9-7.9-7.9c-3.8,0-7,2.8-7.7,6.4h-73.8
			C326.7,531.4,323.5,528.6,319.7,528.6z"/>
		<radialGradient id="SVGID_101_" cx="701" cy="489" r="544.0147" gradientUnits="userSpaceOnUse">
			<stop  offset="0" style="stop-color:#10A7FF"/>
			<stop  offset="1" style="stop-color:#224099"/>
		</radialGradient>
		<path fill="url(#SVGID_101_)" d="M57.9,120.6c3.1,3.1,8.1,3.1,11.2,0s3.1-8.1,0-11.2c-2.7-2.7-6.9-3-10-1L0,49.4v4.2l57,57
			C54.9,113.7,55.2,117.9,57.9,120.6z"/>
		<radialGradient id="SVGID_102_" cx="701" cy="489" r="544.0147" gradientUnits="userSpaceOnUse">
			<stop  offset="0" style="stop-color:#10A7FF"/>
			<stop  offset="1" style="stop-color:#224099"/>
		</radialGradient>
		<path fill="url(#SVGID_102_)" d="M129.2,0h-8.4C123.4,1.6,126.6,1.6,129.2,0z"/>
		<radialGradient id="SVGID_103_" cx="701" cy="489" r="544.0147" gradientUnits="userSpaceOnUse">
			<stop  offset="0" style="stop-color:#10A7FF"/>
			<stop  offset="1" style="stop-color:#224099"/>
		</radialGradient>
		<polygon fill="url(#SVGID_103_)" points="263.5,205.2 58.4,0 54.1,0 260.5,206.4 260.5,291.8 0,552.3 0,556.6 263.5,293 		"/>
		<radialGradient id="SVGID_104_" cx="701" cy="489" r="544.0147" gradientUnits="userSpaceOnUse">
			<stop  offset="0" style="stop-color:#10A7FF"/>
			<stop  offset="1" style="stop-color:#224099"/>
		</radialGradient>
		<path fill="url(#SVGID_104_)" d="M46.9,223.1c3.1,3.1,8.1,3.1,11.2,0s3.1-8.1,0-11.2c-2.7-2.7-6.9-3-10-1L0,162.9v4.2l46,46
			C43.9,216.2,44.2,220.4,46.9,223.1z"/>
		<radialGradient id="SVGID_105_" cx="701" cy="489" r="544.0147" gradientUnits="userSpaceOnUse">
			<stop  offset="0" style="stop-color:#10A7FF"/>
			<stop  offset="1" style="stop-color:#224099"/>
		</radialGradient>
		<path fill="url(#SVGID_105_)" d="M107.2,179.3l74.3,74.3c-2.1,3.1-1.8,7.3,1,10c3.1,3.1,8.1,3.1,11.2,0s3.1-8.1,0-11.2
			c-2.7-2.7-6.9-3-10-1l-75.2-75.2H66.6L0,109.7v4.2l65.4,65.4H107.2z"/>
		<radialGradient id="SVGID_106_" cx="701" cy="489" r="544.0147" gradientUnits="userSpaceOnUse">
			<stop  offset="0" style="stop-color:#10A7FF"/>
			<stop  offset="1" style="stop-color:#224099"/>
		</radialGradient>
		<path fill="url(#SVGID_106_)" d="M284.5,90.3l85.3,85.3v101.7l135.3,135.3c-2.1,3.1-1.8,7.3,1,10c3.1,3.1,8.1,3.1,11.2,0
			s3.1-8.1,0-11.2c-2.7-2.7-6.9-3-10-1L372.8,276V174.4l-87-87h-25.7L172.8,0h-4.2l90.3,90.3H284.5z"/>
		<radialGradient id="SVGID_107_" cx="701" cy="489" r="544.0147" gradientUnits="userSpaceOnUse">
			<stop  offset="0" style="stop-color:#10A7FF"/>
			<stop  offset="1" style="stop-color:#224099"/>
		</radialGradient>
		<path fill="url(#SVGID_107_)" d="M506.1,450.6c3.1,3.1,8.1,3.1,11.2,0s3.1-8.1,0-11.2c-2.7-2.7-6.9-3-10-1L355.7,286.9V185
			l-77.5-77.5c2.1-3.1,1.8-7.3-1-10c-3.1-3.1-8.1-3.1-11.2,0c-3.1,3.1-3.1,8.1,0,11.2c2.7,2.7,6.9,3,10,1l76.7,76.7v101.8
			l152.5,152.5C503,443.7,503.4,447.9,506.1,450.6z"/>
		<radialGradient id="SVGID_108_" cx="701" cy="489" r="544.0147" gradientUnits="userSpaceOnUse">
			<stop  offset="0" style="stop-color:#10A7FF"/>
			<stop  offset="1" style="stop-color:#224099"/>
		</radialGradient>
		<path fill="url(#SVGID_108_)" d="M225.3,496.8c3.1-3.1,3.1-8.1,0-11.2c-3.1-3.1-8.1-3.1-11.2,0c-2.7,2.7-3,6.9-1,10L178.9,530
			c-3.1-2.1-7.3-1.8-10,1c-3.1,3.1-3.1,8.1,0,11.2s8.1,3.1,11.2,0c2.7-2.7,3-6.9,1-10l34.3-34.3
			C218.4,499.9,222.6,499.6,225.3,496.8z"/>
		<radialGradient id="SVGID_109_" cx="701" cy="489" r="544.0147" gradientUnits="userSpaceOnUse">
			<stop  offset="0" style="stop-color:#10A7FF"/>
			<stop  offset="1" style="stop-color:#224099"/>
		</radialGradient>
		<path fill="url(#SVGID_109_)" d="M276,534.5c-3.1-2.1-7.3-1.8-10,1c-3.1,3.1-3.1,8.1,0,11.2c3.1,3.1,8.1,3.1,11.2,0
			c2.7-2.7,3-6.9,1-10l77.8-77.8h34.7c0.7,3.6,3.9,6.4,7.7,6.4c4.4,0,7.9-3.5,7.9-7.9c0-4.4-3.5-7.9-7.9-7.9c-3.8,0-7,2.8-7.7,6.4
			h-35.9L276,534.5z"/>
		<radialGradient id="SVGID_110_" cx="701" cy="489" r="544.0147" gradientUnits="userSpaceOnUse">
			<stop  offset="0" style="stop-color:#10A7FF"/>
			<stop  offset="1" style="stop-color:#224099"/>
		</radialGradient>
		<path fill="url(#SVGID_110_)" d="M471.4,211.8l41.8,41.8c-2.1,3.1-1.8,7.3,1,10c3.1,3.1,8.1,3.1,11.2,0c3.1-3.1,3.1-8.1,0-11.2
			c-2.7-2.7-6.9-3-10-1l-40.9-40.9v-70.2L334,0h-4.2l141.6,141.6V211.8z"/>
		<radialGradient id="SVGID_111_" cx="701" cy="489" r="544.0147" gradientUnits="userSpaceOnUse">
			<stop  offset="0" style="stop-color:#10A7FF"/>
			<stop  offset="1" style="stop-color:#224099"/>
		</radialGradient>
		<polygon fill="url(#SVGID_111_)" points="32.9,294.1 0,261.2 0,265.5 29.9,295.3 29.9,325 0,354.9 0,359.2 32.9,326.3 		"/>
		<radialGradient id="SVGID_112_" cx="701" cy="489" r="544.0147" gradientUnits="userSpaceOnUse">
			<stop  offset="0" style="stop-color:#10A7FF"/>
			<stop  offset="1" style="stop-color:#224099"/>
		</radialGradient>
		<path fill="url(#SVGID_112_)" d="M551.8,224.4l-32-32c2.1-3.1,1.8-7.3-1-10c-3.1-3.1-8.1-3.1-11.2,0c-3.1,3.1-3.1,8.1,0,11.2
			c2.7,2.7,6.9,3,10,1l31.1,31.1v71.1H515l-44.8-44.8c2.1-3.1,1.8-7.3-1-10c-3.1-3.1-8.1-3.1-11.2,0s-3.1,8.1,0,11.2
			c2.7,2.7,6.9,3,10,1l45.7,45.7h38V224.4z"/>
		<radialGradient id="SVGID_113_" cx="701" cy="489" r="544.0147" gradientUnits="userSpaceOnUse">
			<stop  offset="0" style="stop-color:#10A7FF"/>
			<stop  offset="1" style="stop-color:#224099"/>
		</radialGradient>
		<path fill="url(#SVGID_113_)" d="M373,430.3c0-4.8-3.9-8.6-8.6-8.6s-8.6,3.9-8.6,8.6s3.9,8.6,8.6,8.6S373,435.1,373,430.3z
			 M358.8,430.3c0-3.1,2.5-5.6,5.6-5.6s5.6,2.5,5.6,5.6s-2.5,5.6-5.6,5.6S358.8,433.4,358.8,430.3z"/>
		<radialGradient id="SVGID_114_" cx="701" cy="489" r="544.0147" gradientUnits="userSpaceOnUse">
			<stop  offset="0" style="stop-color:#10A7FF"/>
			<stop  offset="1" style="stop-color:#224099"/>
		</radialGradient>
		<path fill="url(#SVGID_114_)" d="M296,452.9c0-4.8-3.9-8.6-8.6-8.6s-8.6,3.9-8.6,8.6s3.9,8.6,8.6,8.6S296,457.7,296,452.9z
			 M281.7,452.9c0-3.1,2.5-5.6,5.6-5.6s5.6,2.5,5.6,5.6s-2.5,5.6-5.6,5.6S281.7,456,281.7,452.9z"/>
		<radialGradient id="SVGID_115_" cx="701" cy="489" r="544.0147" gradientUnits="userSpaceOnUse">
			<stop  offset="0" style="stop-color:#10A7FF"/>
			<stop  offset="1" style="stop-color:#224099"/>
		</radialGradient>
		<path fill="url(#SVGID_115_)" d="M71,561.9c0,4.8,3.9,8.6,8.6,8.6s8.6-3.9,8.6-8.6s-3.9-8.6-8.6-8.6S71,557.1,71,561.9z
			 M85.3,561.9c0,3.1-2.5,5.6-5.6,5.6S74,565,74,561.9s2.5-5.6,5.6-5.6S85.3,558.8,85.3,561.9z"/>
		<radialGradient id="SVGID_116_" cx="701" cy="489" r="544.0147" gradientUnits="userSpaceOnUse">
			<stop  offset="0" style="stop-color:#10A7FF"/>
			<stop  offset="1" style="stop-color:#224099"/>
		</radialGradient>
		<path fill="url(#SVGID_116_)" d="M129.5,279.5c-4.8,0-8.6,3.9-8.6,8.6s3.9,8.6,8.6,8.6s8.6-3.9,8.6-8.6S134.3,279.5,129.5,279.5z
			 M129.5,293.7c-3.1,0-5.6-2.5-5.6-5.6s2.5-5.6,5.6-5.6s5.6,2.5,5.6,5.6S132.6,293.7,129.5,293.7z"/>
		<radialGradient id="SVGID_117_" cx="701" cy="489" r="544.0147" gradientUnits="userSpaceOnUse">
			<stop  offset="0" style="stop-color:#10A7FF"/>
			<stop  offset="1" style="stop-color:#224099"/>
		</radialGradient>
		<path fill="url(#SVGID_117_)" d="M186.4,219.1c0-4.8-3.9-8.6-8.6-8.6s-8.6,3.9-8.6,8.6s3.9,8.6,8.6,8.6S186.4,223.8,186.4,219.1z
			 M172.1,219.1c0-3.1,2.5-5.6,5.6-5.6s5.6,2.5,5.6,5.6s-2.5,5.6-5.6,5.6S172.1,222.2,172.1,219.1z"/>
		<radialGradient id="SVGID_118_" cx="701" cy="489" r="544.0147" gradientUnits="userSpaceOnUse">
			<stop  offset="0" style="stop-color:#10A7FF"/>
			<stop  offset="1" style="stop-color:#224099"/>
		</radialGradient>
		<path fill="url(#SVGID_118_)" d="M160.5,187.8c0-4.8-3.9-8.6-8.6-8.6s-8.6,3.9-8.6,8.6s3.9,8.6,8.6,8.6S160.5,192.5,160.5,187.8z
			 M146.3,187.8c0-3.1,2.5-5.6,5.6-5.6s5.6,2.5,5.6,5.6s-2.5,5.6-5.6,5.6S146.3,190.9,146.3,187.8z"/>
		<radialGradient id="SVGID_119_" cx="701" cy="489" r="544.0147" gradientUnits="userSpaceOnUse">
			<stop  offset="0" style="stop-color:#10A7FF"/>
			<stop  offset="1" style="stop-color:#224099"/>
		</radialGradient>
		<path fill="url(#SVGID_119_)" d="M456.5,187.8c0-4.8-3.9-8.6-8.6-8.6s-8.6,3.9-8.6,8.6s3.9,8.6,8.6,8.6S456.5,192.5,456.5,187.8z
			 M442.3,187.8c0-3.1,2.5-5.6,5.6-5.6s5.6,2.5,5.6,5.6s-2.5,5.6-5.6,5.6S442.3,190.9,442.3,187.8z"/>
		<radialGradient id="SVGID_120_" cx="701" cy="489" r="544.0147" gradientUnits="userSpaceOnUse">
			<stop  offset="0" style="stop-color:#10A7FF"/>
			<stop  offset="1" style="stop-color:#224099"/>
		</radialGradient>
		<path fill="url(#SVGID_120_)" d="M766.6,201.1c0-4.8-3.9-8.6-8.6-8.6s-8.6,3.9-8.6,8.6s3.9,8.6,8.6,8.6S766.6,205.9,766.6,201.1z
			 M752.4,201.1c0-3.1,2.5-5.6,5.6-5.6s5.6,2.5,5.6,5.6s-2.5,5.6-5.6,5.6S752.4,204.2,752.4,201.1z"/>
		<radialGradient id="SVGID_121_" cx="701" cy="489" r="544.0147" gradientUnits="userSpaceOnUse">
			<stop  offset="0" style="stop-color:#10A7FF"/>
			<stop  offset="1" style="stop-color:#224099"/>
		</radialGradient>
		<path fill="url(#SVGID_121_)" d="M568.4,35.1c4.8,0,8.6-3.9,8.6-8.6s-3.9-8.6-8.6-8.6s-8.6,3.9-8.6,8.6S563.7,35.1,568.4,35.1z
			 M568.4,20.8c3.1,0,5.6,2.5,5.6,5.6s-2.5,5.6-5.6,5.6s-5.6-2.5-5.6-5.6S565.3,20.8,568.4,20.8z"/>
		<radialGradient id="SVGID_122_" cx="701" cy="489" r="544.0147" gradientUnits="userSpaceOnUse">
			<stop  offset="0" style="stop-color:#10A7FF"/>
			<stop  offset="1" style="stop-color:#224099"/>
		</radialGradient>
		<path fill="url(#SVGID_122_)" d="M1012.5,122.1c0-4.8-3.9-8.6-8.6-8.6s-8.6,3.9-8.6,8.6s3.9,8.6,8.6,8.6
			S1012.5,126.9,1012.5,122.1z M998.3,122.1c0-3.1,2.5-5.6,5.6-5.6s5.6,2.5,5.6,5.6s-2.5,5.6-5.6,5.6S998.3,125.2,998.3,122.1z"/>
		<radialGradient id="SVGID_123_" cx="701" cy="489" r="544.0147" gradientUnits="userSpaceOnUse">
			<stop  offset="0" style="stop-color:#10A7FF"/>
			<stop  offset="1" style="stop-color:#224099"/>
		</radialGradient>
		<path fill="url(#SVGID_123_)" d="M1305,685.4c0-4.8-3.9-8.6-8.6-8.6s-8.6,3.9-8.6,8.6s3.9,8.6,8.6,8.6S1305,690.1,1305,685.4z
			 M1290.8,685.4c0-3.1,2.5-5.6,5.6-5.6s5.6,2.5,5.6,5.6s-2.5,5.6-5.6,5.6S1290.8,688.5,1290.8,685.4z"/>
		<radialGradient id="SVGID_124_" cx="701" cy="489" r="544.0147" gradientUnits="userSpaceOnUse">
			<stop  offset="0" style="stop-color:#10A7FF"/>
			<stop  offset="1" style="stop-color:#224099"/>
		</radialGradient>
		<path fill="url(#SVGID_124_)" d="M833.8,774.3c0,4.8,3.9,8.6,8.6,8.6s8.6-3.9,8.6-8.6s-3.9-8.6-8.6-8.6S833.8,769.5,833.8,774.3z
			 M848.1,774.3c0,3.1-2.5,5.6-5.6,5.6s-5.6-2.5-5.6-5.6s2.5-5.6,5.6-5.6S848.1,771.2,848.1,774.3z"/>
		<radialGradient id="SVGID_125_" cx="701" cy="489" r="544.0147" gradientUnits="userSpaceOnUse">
			<stop  offset="0" style="stop-color:#10A7FF"/>
			<stop  offset="1" style="stop-color:#224099"/>
		</radialGradient>
		<path fill="url(#SVGID_125_)" d="M1313.7,879.4c0-4.8-3.9-8.6-8.6-8.6s-8.6,3.9-8.6,8.6s3.9,8.6,8.6,8.6
			S1313.7,884.2,1313.7,879.4z M1299.4,879.4c0-3.1,2.5-5.6,5.6-5.6s5.6,2.5,5.6,5.6s-2.5,5.6-5.6,5.6S1299.4,882.5,1299.4,879.4z"
			/>
		<radialGradient id="SVGID_126_" cx="701" cy="489" r="544.0147" gradientUnits="userSpaceOnUse">
			<stop  offset="0" style="stop-color:#10A7FF"/>
			<stop  offset="1" style="stop-color:#224099"/>
		</radialGradient>
		<path fill="url(#SVGID_126_)" d="M1240.1,733.1c0,4.8,3.9,8.6,8.6,8.6s8.6-3.9,8.6-8.6s-3.9-8.6-8.6-8.6
			S1240.1,728.3,1240.1,733.1z M1254.3,733.1c0,3.1-2.5,5.6-5.6,5.6s-5.6-2.5-5.6-5.6s2.5-5.6,5.6-5.6S1254.3,730,1254.3,733.1z"/>
		<radialGradient id="SVGID_127_" cx="701" cy="489" r="544.0147" gradientUnits="userSpaceOnUse">
			<stop  offset="0" style="stop-color:#10A7FF"/>
			<stop  offset="1" style="stop-color:#224099"/>
		</radialGradient>
		<path fill="url(#SVGID_127_)" d="M386.1,741.7c4.8,0,8.6-3.9,8.6-8.6s-3.9-8.6-8.6-8.6s-8.6,3.9-8.6,8.6S381.3,741.7,386.1,741.7z
			 M386.1,727.4c3.1,0,5.6,2.5,5.6,5.6s-2.5,5.6-5.6,5.6s-5.6-2.5-5.6-5.6S383,727.4,386.1,727.4z"/>
		<radialGradient id="SVGID_128_" cx="701" cy="489" r="544.0147" gradientUnits="userSpaceOnUse">
			<stop  offset="0" style="stop-color:#10A7FF"/>
			<stop  offset="1" style="stop-color:#224099"/>
		</radialGradient>
		<path fill="url(#SVGID_128_)" d="M263.5,836.4c0-4.8-3.9-8.6-8.6-8.6s-8.6,3.9-8.6,8.6s3.9,8.6,8.6,8.6S263.5,841.1,263.5,836.4z
			 M249.2,836.4c0-3.1,2.5-5.6,5.6-5.6s5.6,2.5,5.6,5.6s-2.5,5.6-5.6,5.6S249.2,839.5,249.2,836.4z"/>
		<radialGradient id="SVGID_129_" cx="701" cy="489" r="544.0147" gradientUnits="userSpaceOnUse">
			<stop  offset="0" style="stop-color:#10A7FF"/>
			<stop  offset="1" style="stop-color:#224099"/>
		</radialGradient>
		<path fill="url(#SVGID_129_)" d="M532.1,942.9c-4.8,0-8.6,3.9-8.6,8.6s3.9,8.6,8.6,8.6s8.6-3.9,8.6-8.6S536.9,942.9,532.1,942.9z
			 M532.1,957.2c-3.1,0-5.6-2.5-5.6-5.6s2.5-5.6,5.6-5.6s5.6,2.5,5.6,5.6S535.2,957.2,532.1,957.2z"/>
		<radialGradient id="SVGID_130_" cx="701" cy="489" r="544.0147" gradientUnits="userSpaceOnUse">
			<stop  offset="0" style="stop-color:#10A7FF"/>
			<stop  offset="1" style="stop-color:#224099"/>
		</radialGradient>
		<path fill="url(#SVGID_130_)" d="M386.1,808.5c4.8,0,8.6-3.9,8.6-8.6s-3.9-8.6-8.6-8.6s-8.6,3.9-8.6,8.6S381.3,808.5,386.1,808.5z
			 M386.1,794.3c3.1,0,5.6,2.5,5.6,5.6s-2.5,5.6-5.6,5.6s-5.6-2.5-5.6-5.6S383,794.3,386.1,794.3z"/>
		<radialGradient id="SVGID_131_" cx="701" cy="489" r="544.0147" gradientUnits="userSpaceOnUse">
			<stop  offset="0" style="stop-color:#10A7FF"/>
			<stop  offset="1" style="stop-color:#224099"/>
		</radialGradient>
		<path fill="url(#SVGID_131_)" d="M79.6,764.2c0-4.8-3.9-8.6-8.6-8.6s-8.6,3.9-8.6,8.6s3.9,8.6,8.6,8.6S79.6,769,79.6,764.2z
			 M65.4,764.2c0-3.1,2.5-5.6,5.6-5.6s5.6,2.5,5.6,5.6s-2.5,5.6-5.6,5.6S65.4,767.3,65.4,764.2z"/>
		<radialGradient id="SVGID_132_" cx="701" cy="489" r="544.0147" gradientUnits="userSpaceOnUse">
			<stop  offset="0" style="stop-color:#10A7FF"/>
			<stop  offset="1" style="stop-color:#224099"/>
		</radialGradient>
		<path fill="url(#SVGID_132_)" d="M851.1,827.8c0-4.8-3.9-8.6-8.6-8.6s-8.6,3.9-8.6,8.6s3.9,8.6,8.6,8.6S851.1,832.5,851.1,827.8z
			 M836.8,827.8c0-3.1,2.5-5.6,5.6-5.6s5.6,2.5,5.6,5.6s-2.5,5.6-5.6,5.6S836.8,830.9,836.8,827.8z"/>
		<radialGradient id="SVGID_133_" cx="701" cy="489" r="544.0147" gradientUnits="userSpaceOnUse">
			<stop  offset="0" style="stop-color:#10A7FF"/>
			<stop  offset="1" style="stop-color:#224099"/>
		</radialGradient>
		<path fill="url(#SVGID_133_)" d="M934.7,325c0-4.8-3.9-8.6-8.6-8.6s-8.6,3.9-8.6,8.6s3.9,8.6,8.6,8.6S934.7,329.8,934.7,325z
			 M920.5,325c0-3.1,2.5-5.6,5.6-5.6s5.6,2.5,5.6,5.6s-2.5,5.6-5.6,5.6S920.5,328.1,920.5,325z"/>
		<radialGradient id="SVGID_134_" cx="701" cy="489" r="544.0147" gradientUnits="userSpaceOnUse">
			<stop  offset="0" style="stop-color:#10A7FF"/>
			<stop  offset="1" style="stop-color:#224099"/>
		</radialGradient>
		<path fill="url(#SVGID_134_)" d="M985.9,318.1c0,4.8,3.9,8.6,8.6,8.6s8.6-3.9,8.6-8.6s-3.9-8.6-8.6-8.6S985.9,313.3,985.9,318.1z
			 M1000.2,318.1c0,3.1-2.5,5.6-5.6,5.6s-5.6-2.5-5.6-5.6s2.5-5.6,5.6-5.6S1000.2,315,1000.2,318.1z"/>
		<radialGradient id="SVGID_135_" cx="701" cy="489" r="544.0147" gradientUnits="userSpaceOnUse">
			<stop  offset="0" style="stop-color:#10A7FF"/>
			<stop  offset="1" style="stop-color:#224099"/>
		</radialGradient>
		<path fill="url(#SVGID_135_)" d="M91.6,318.1c0,4.8,3.9,8.6,8.6,8.6s8.6-3.9,8.6-8.6s-3.9-8.6-8.6-8.6S91.6,313.3,91.6,318.1z
			 M105.8,318.1c0,3.1-2.5,5.6-5.6,5.6s-5.6-2.5-5.6-5.6s2.5-5.6,5.6-5.6S105.8,315,105.8,318.1z"/>
	</g>
	<polygon fill="none" stroke="#017881" stroke-miterlimit="10" points="-18.4,0 200.6,219 200.6,287.9 -104.6,593.1 	"/>
</g>
</svg>
